<svg width="532" height="375" viewBox="0 0 532 375" fill="none" xmlns="http://www.w3.org/2000/svg">
<rect x="0.5" y="0.5" width="531" height="374" rx="8.5" fill="white"/>
<rect x="0.5" y="0.5" width="531" height="374" rx="8.5" stroke="#E9E9E9"/>
<rect x="1" y="1" width="530" height="373" rx="8" fill="white"/>
<mask id="path-3-outside-1_2673_4033" maskUnits="userSpaceOnUse" x="1" y="1" width="111" height="373" fill="black">
<rect fill="white" x="1" y="1" width="111" height="373"/>
<path d="M1 9C1 4.58172 4.58172 1 9 1H111V374H9C4.58172 374 1 370.418 1 366V9Z"/>
</mask>
<path d="M1 9C1 4.58172 4.58172 1 9 1H111V374H9C4.58172 374 1 370.418 1 366V9Z" fill="white"/>
<path d="M1 1H111H1ZM111 374H1H111ZM1 374V1V374ZM111.43 1V374H110.57V1H111.43Z" fill="#E9E9E9" mask="url(#path-3-outside-1_2673_4033)"/>
<g opacity="0.999741">
<path d="M7.88237 9.60359C7.88237 8.65323 8.65279 7.88281 9.60315 7.88281H19.9263C20.8767 7.88281 21.6471 8.65323 21.6471 9.60359V19.9268C21.6471 20.8771 20.8767 21.6476 19.9263 21.6476H9.60315C8.65279 21.6476 7.88237 20.8771 7.88237 19.9268V9.60359Z" fill="#005626"/>
</g>
<path d="M30.0068 13.2293C29.9677 12.8822 29.8063 12.6134 29.5228 12.4227C29.2393 12.2296 28.8824 12.133 28.4522 12.133C28.1442 12.133 27.8778 12.1819 27.6529 12.2797C27.4281 12.375 27.2533 12.507 27.1286 12.6757C27.0064 12.8419 26.9453 13.0313 26.9453 13.244C26.9453 13.4224 26.9869 13.5764 27.07 13.7059C27.1555 13.8355 27.2667 13.9443 27.4036 14.0323C27.5429 14.1178 27.692 14.1899 27.8509 14.2486C28.0098 14.3048 28.1626 14.3512 28.3092 14.3879L29.0425 14.5786C29.282 14.6372 29.5277 14.7167 29.7795 14.8169C30.0312 14.9171 30.2647 15.0491 30.4798 15.2129C30.6948 15.3766 30.8684 15.5795 31.0004 15.8215C31.1348 16.0635 31.202 16.3531 31.202 16.6904C31.202 17.1157 31.092 17.4934 30.8721 17.8234C30.6545 18.1533 30.338 18.4136 29.9225 18.6043C29.5094 18.795 29.0095 18.8903 28.4229 18.8903C27.8607 18.8903 27.3743 18.8011 26.9636 18.6226C26.553 18.4442 26.2316 18.1912 25.9994 17.8637C25.7672 17.5337 25.6388 17.1426 25.6144 16.6904H26.751C26.773 16.9617 26.861 17.1878 27.015 17.3687C27.1714 17.5471 27.3706 17.6804 27.6126 17.7684C27.857 17.8539 28.1247 17.8967 28.4155 17.8967C28.7358 17.8967 29.0205 17.8466 29.2698 17.7464C29.5216 17.6437 29.7196 17.5019 29.8638 17.3211C30.008 17.1377 30.0801 16.9239 30.0801 16.6794C30.0801 16.457 30.0166 16.2749 29.8895 16.1331C29.7648 15.9914 29.5949 15.874 29.3798 15.7811C29.1672 15.6883 28.9264 15.6064 28.6575 15.5355L27.7703 15.2935C27.169 15.1297 26.6923 14.889 26.3403 14.5712C25.9908 14.2535 25.816 13.8331 25.816 13.31C25.816 12.8773 25.9334 12.4997 26.168 12.177C26.4027 11.8544 26.7204 11.6039 27.1213 11.4254C27.5222 11.2445 27.9744 11.1541 28.4779 11.1541C28.9863 11.1541 29.4348 11.2433 29.8235 11.4218C30.2145 11.6002 30.5225 11.8458 30.7474 12.1587C30.9723 12.4691 31.0896 12.826 31.0994 13.2293H30.0068ZM35.4158 16.4301V13.134H36.5158V18.7656H35.4378V17.7904H35.3792C35.2496 18.091 35.0419 18.3415 34.7559 18.542C34.4723 18.74 34.1191 18.839 33.6963 18.839C33.3345 18.839 33.0143 18.7595 32.7357 18.6006C32.4595 18.4393 32.2419 18.201 32.083 17.8857C31.9266 17.5704 31.8484 17.1805 31.8484 16.7161V13.134H32.9447V16.5841C32.9447 16.9679 33.051 17.2734 33.2636 17.5007C33.4763 17.728 33.7525 17.8417 34.0922 17.8417C34.2976 17.8417 34.5017 17.7904 34.7045 17.6877C34.9099 17.585 35.0797 17.4298 35.2142 17.2221C35.3511 17.0143 35.4183 16.7503 35.4158 16.4301ZM37.3693 18.7656V13.134H38.4289V14.0286H38.4875C38.5902 13.7255 38.7711 13.4872 39.0302 13.3136C39.2917 13.1377 39.5875 13.0497 39.9174 13.0497C39.9859 13.0497 40.0665 13.0521 40.1594 13.057C40.2548 13.0619 40.3293 13.068 40.3831 13.0753V14.1239C40.3391 14.1117 40.2609 14.0983 40.1484 14.0836C40.036 14.0665 39.9236 14.0579 39.8111 14.0579C39.552 14.0579 39.321 14.1129 39.1182 14.2229C38.9177 14.3305 38.7588 14.4808 38.6415 14.6739C38.5242 14.8645 38.4655 15.0821 38.4655 15.3265V18.7656H37.3693ZM42.9378 18.8793C42.383 18.8793 41.9051 18.7607 41.5042 18.5236C41.1058 18.2841 40.7978 17.948 40.5803 17.5154C40.3652 17.0803 40.2576 16.5707 40.2576 15.9865C40.2576 15.4096 40.3652 14.9012 40.5803 14.4612C40.7978 14.0213 41.1009 13.6778 41.4896 13.431C41.8807 13.1841 42.3377 13.0607 42.8608 13.0607C43.1786 13.0607 43.4866 13.1132 43.7848 13.2183C44.083 13.3234 44.3506 13.4884 44.5877 13.7133C44.8248 13.9382 45.0118 14.2302 45.1487 14.5896C45.2856 14.9464 45.354 15.3803 45.354 15.8911V16.2798H40.8773V15.4585H44.2797C44.2797 15.1701 44.2211 14.9146 44.1037 14.6922C43.9864 14.4673 43.8214 14.2901 43.6088 14.1606C43.3986 14.031 43.1517 13.9663 42.8681 13.9663C42.5602 13.9663 42.2913 14.042 42.0615 14.1936C41.8342 14.3427 41.6582 14.5382 41.5336 14.7802C41.4114 15.0198 41.3502 15.2801 41.3502 15.5612V16.2028C41.3502 16.5792 41.4162 16.8994 41.5482 17.1634C41.6827 17.4274 41.8697 17.629 42.1092 17.7684C42.3487 17.9052 42.6286 17.9737 42.9488 17.9737C43.1566 17.9737 43.346 17.9443 43.5171 17.8857C43.6882 17.8246 43.8361 17.7341 43.9607 17.6144C44.0854 17.4946 44.1807 17.3467 44.2467 17.1707L45.2843 17.3577C45.2012 17.6633 45.0521 17.9309 44.837 18.1607C44.6244 18.388 44.3567 18.5652 44.0341 18.6923C43.7139 18.817 43.3485 18.8793 42.9378 18.8793ZM52.2754 13.6986H51.1315C51.0875 13.4542 51.0056 13.2391 50.8859 13.0533C50.7661 12.8676 50.6194 12.7099 50.4459 12.5804C50.2724 12.4508 50.078 12.353 49.8629 12.287C49.6503 12.221 49.4242 12.188 49.1846 12.188C48.752 12.188 48.3646 12.2968 48.0224 12.5144C47.6826 12.7319 47.4138 13.0509 47.2158 13.4713C47.0202 13.8917 46.9225 14.405 46.9225 15.0112C46.9225 15.6223 47.0202 16.138 47.2158 16.5584C47.4138 16.9788 47.6838 17.2966 48.026 17.5117C48.3683 17.7268 48.7532 17.8344 49.181 17.8344C49.4181 17.8344 49.6429 17.8026 49.8556 17.739C50.0707 17.673 50.265 17.5765 50.4386 17.4494C50.6121 17.3223 50.7588 17.1671 50.8785 16.9837C51.0007 16.798 51.0851 16.5853 51.1315 16.3458L52.2754 16.3494C52.2143 16.7185 52.0958 17.0583 51.9198 17.3687C51.7463 17.6767 51.5226 17.9431 51.2488 18.168C50.9775 18.3904 50.6671 18.5627 50.3176 18.685C49.968 18.8072 49.5867 18.8683 49.1736 18.8683C48.5235 18.8683 47.9442 18.7143 47.4358 18.4063C46.9273 18.0959 46.5265 17.6523 46.2332 17.0754C45.9423 16.4985 45.7969 15.8105 45.7969 15.0112C45.7969 14.2095 45.9435 13.5214 46.2368 12.947C46.5301 12.3701 46.931 11.9277 47.4394 11.6197C47.9478 11.3093 48.5259 11.1541 49.1736 11.1541C49.5721 11.1541 49.9436 11.2116 50.2882 11.3264C50.6353 11.4389 50.947 11.6051 51.2232 11.8251C51.4994 12.0426 51.7279 12.309 51.9088 12.6243C52.0897 12.9372 52.2119 13.2953 52.2754 13.6986ZM55.3508 18.8793C54.796 18.8793 54.3181 18.7607 53.9172 18.5236C53.5188 18.2841 53.2108 17.948 52.9933 17.5154C52.7782 17.0803 52.6707 16.5707 52.6707 15.9865C52.6707 15.4096 52.7782 14.9012 52.9933 14.4612C53.2108 14.0213 53.5139 13.6778 53.9026 13.431C54.2937 13.1841 54.7507 13.0607 55.2738 13.0607C55.5916 13.0607 55.8996 13.1132 56.1978 13.2183C56.496 13.3234 56.7636 13.4884 57.0007 13.7133C57.2378 13.9382 57.4248 14.2302 57.5617 14.5896C57.6986 14.9464 57.767 15.3803 57.767 15.8911V16.2798H53.2903V15.4585H56.6927C56.6927 15.1701 56.6341 14.9146 56.5167 14.6922C56.3994 14.4673 56.2344 14.2901 56.0218 14.1606C55.8116 14.031 55.5647 13.9663 55.2812 13.9663C54.9732 13.9663 54.7043 14.042 54.4745 14.1936C54.2472 14.3427 54.0712 14.5382 53.9466 14.7802C53.8244 15.0198 53.7632 15.2801 53.7632 15.5612V16.2028C53.7632 16.5792 53.8292 16.8994 53.9612 17.1634C54.0957 17.4274 54.2827 17.629 54.5222 17.7684C54.7617 17.9052 55.0416 17.9737 55.3618 17.9737C55.5696 17.9737 55.759 17.9443 55.9301 17.8857C56.1012 17.8246 56.2491 17.7341 56.3737 17.6144C56.4984 17.4946 56.5937 17.3467 56.6597 17.1707L57.6973 17.3577C57.6142 17.6633 57.4651 17.9309 57.25 18.1607C57.0374 18.388 56.7697 18.5652 56.4471 18.6923C56.1269 18.817 55.7615 18.8793 55.3508 18.8793ZM60.472 18.8756C60.0174 18.8756 59.6117 18.7595 59.2548 18.5273C58.9004 18.2927 58.6217 17.959 58.4188 17.5264C58.2184 17.0913 58.1182 16.5694 58.1182 15.9608C58.1182 15.3522 58.2196 14.8315 58.4225 14.3989C58.6278 13.9663 58.9089 13.6351 59.2658 13.4053C59.6227 13.1755 60.0272 13.0607 60.4794 13.0607C60.8289 13.0607 61.11 13.1193 61.3227 13.2366C61.5378 13.3515 61.704 13.486 61.8213 13.64C61.9411 13.7939 62.034 13.9296 62.0999 14.0469H62.1659V11.2568H63.2622V18.7656H62.1916V17.8893H62.0999C62.034 18.0091 61.9386 18.146 61.814 18.3C61.6917 18.454 61.5231 18.5884 61.308 18.7033C61.0929 18.8182 60.8143 18.8756 60.472 18.8756ZM60.714 17.9407C61.0293 17.9407 61.2958 17.8576 61.5133 17.6914C61.7333 17.5227 61.8995 17.2893 62.012 16.9911C62.1268 16.6929 62.1843 16.3458 62.1843 15.9498C62.1843 15.5587 62.1281 15.2165 62.0156 14.9232C61.9032 14.6299 61.7382 14.4013 61.5206 14.2376C61.3031 14.0738 61.0342 13.9919 60.714 13.9919C60.3841 13.9919 60.1091 14.0775 59.8891 14.2486C59.6691 14.4197 59.5029 14.6531 59.3905 14.9489C59.2805 15.2446 59.2255 15.5783 59.2255 15.9498C59.2255 16.3262 59.2817 16.6648 59.3941 16.9654C59.5066 17.2661 59.6728 17.5044 59.8928 17.6804C60.1152 17.8539 60.3889 17.9407 60.714 17.9407ZM66.6346 18.8793C66.0797 18.8793 65.6018 18.7607 65.201 18.5236C64.8026 18.2841 64.4946 17.948 64.277 17.5154C64.0619 17.0803 63.9544 16.5707 63.9544 15.9865C63.9544 15.4096 64.0619 14.9012 64.277 14.4612C64.4946 14.0213 64.7977 13.6778 65.1863 13.431C65.5774 13.1841 66.0345 13.0607 66.5576 13.0607C66.8753 13.0607 67.1833 13.1132 67.4815 13.2183C67.7797 13.3234 68.0474 13.4884 68.2844 13.7133C68.5215 13.9382 68.7085 14.2302 68.8454 14.5896C68.9823 14.9464 69.0507 15.3803 69.0507 15.8911V16.2798H64.574V15.4585H67.9765C67.9765 15.1701 67.9178 14.9146 67.8005 14.6922C67.6832 14.4673 67.5182 14.2901 67.3055 14.1606C67.0953 14.031 66.8484 13.9663 66.5649 13.9663C66.2569 13.9663 65.988 14.042 65.7583 14.1936C65.531 14.3427 65.355 14.5382 65.2303 14.7802C65.1081 15.0198 65.047 15.2801 65.047 15.5612V16.2028C65.047 16.5792 65.113 16.8994 65.245 17.1634C65.3794 17.4274 65.5664 17.629 65.8059 17.7684C66.0455 17.9052 66.3254 17.9737 66.6456 17.9737C66.8533 17.9737 67.0428 17.9443 67.2139 17.8857C67.385 17.8246 67.5328 17.7341 67.6575 17.6144C67.7821 17.4946 67.8775 17.3467 67.9435 17.1707L68.9811 17.3577C68.898 17.6633 68.7489 17.9309 68.5338 18.1607C68.3211 18.388 68.0535 18.5652 67.7308 18.6923C67.4106 18.817 67.0452 18.8793 66.6346 18.8793Z" fill="#005626"/>
<rect x="8.09737" y="32.1838" width="95.6952" height="15.0568" rx="3.22646" fill="#FAFAFA"/>
<rect x="8.09737" y="32.1838" width="95.6952" height="15.0568" rx="3.22646" stroke="#E9E9E9" stroke-width="0.430195"/>
<g clip-path="url(#clip0_2673_4033)">
<path d="M15.088 38.5467V37.8297C15.088 37.2404 15.088 36.9458 14.9253 36.7475C14.8955 36.7112 14.8622 36.6779 14.8259 36.6481C14.6276 36.4854 14.333 36.4854 13.7437 36.4854C13.1544 36.4854 12.8598 36.4854 12.6615 36.6481C12.6252 36.6779 12.5919 36.7112 12.5621 36.7475C12.3993 36.9458 12.3993 37.2404 12.3993 37.8297V38.5467C12.3993 39.136 12.3993 39.4306 12.5621 39.6289C12.5919 39.6652 12.6252 39.6985 12.6615 39.7283C12.8598 39.8911 13.1544 39.8911 13.7437 39.8911C14.333 39.8911 14.6276 39.8911 14.8259 39.7283C14.8622 39.6985 14.8955 39.6652 14.9253 39.6289C15.088 39.4306 15.088 39.136 15.088 38.5467Z" stroke="#22281E" stroke-width="0.430195" stroke-linejoin="round"/>
<path d="M14.1022 40.9678H13.3852C13.135 40.9678 13.01 40.9678 12.9082 40.9986C12.679 41.0682 12.4997 41.2475 12.4302 41.4766C12.3993 41.5784 12.3993 41.7035 12.3993 41.9536C12.3993 42.2038 12.3993 42.3289 12.4302 42.4307C12.4997 42.6598 12.679 42.8391 12.9082 42.9086C13.01 42.9395 13.135 42.9395 13.3852 42.9395H14.1022C14.3523 42.9395 14.4774 42.9395 14.5792 42.9086C14.8083 42.8391 14.9877 42.6598 15.0572 42.4307C15.088 42.3289 15.088 42.2038 15.088 41.9536C15.088 41.7035 15.088 41.5784 15.0572 41.4766C14.9877 41.2475 14.8083 41.0682 14.5792 40.9986C14.4774 40.9678 14.3523 40.9678 14.1022 40.9678Z" stroke="#22281E" stroke-width="0.430195" stroke-linejoin="round"/>
<path d="M18.8522 41.5936V40.8766C18.8522 40.2873 18.8522 39.9927 18.6895 39.7944C18.6597 39.758 18.6264 39.7248 18.5901 39.695C18.3918 39.5322 18.0971 39.5322 17.5079 39.5322C16.9186 39.5322 16.624 39.5322 16.4257 39.695C16.3893 39.7248 16.3561 39.758 16.3263 39.7944C16.1635 39.9927 16.1635 40.2873 16.1635 40.8766V41.5936C16.1635 42.1828 16.1635 42.4775 16.3263 42.6758C16.3561 42.7121 16.3893 42.7454 16.4257 42.7752C16.624 42.9379 16.9186 42.9379 17.5079 42.9379C18.0971 42.9379 18.3918 42.9379 18.5901 42.7752C18.6264 42.7454 18.6597 42.7121 18.6895 42.6758C18.8522 42.4775 18.8522 42.1828 18.8522 41.5936Z" stroke="#22281E" stroke-width="0.430195" stroke-linejoin="round"/>
<path d="M17.8664 36.4854H17.1494C16.8992 36.4854 16.7742 36.4854 16.6724 36.5162C16.4432 36.5857 16.2639 36.7651 16.1944 36.9942C16.1635 37.096 16.1635 37.2211 16.1635 37.4712C16.1635 37.7214 16.1635 37.8464 16.1944 37.9482C16.2639 38.1774 16.4432 38.3567 16.6724 38.4262C16.7742 38.4571 16.8992 38.4571 17.1494 38.4571H17.8664C18.1165 38.4571 18.2416 38.4571 18.3434 38.4262C18.5725 38.3567 18.7519 38.1774 18.8214 37.9482C18.8522 37.8464 18.8522 37.7214 18.8522 37.4712C18.8522 37.2211 18.8522 37.096 18.8214 36.9942C18.7519 36.7651 18.5725 36.5857 18.3434 36.5162C18.2416 36.4854 18.1165 36.4854 17.8664 36.4854Z" stroke="#22281E" stroke-width="0.430195" stroke-linejoin="round"/>
</g>
<path d="M24.0025 41.7119V36.8249H25.5168C26.2694 36.8249 26.8476 37.0383 27.2514 37.465C27.6598 37.8872 27.864 38.4906 27.864 39.2753C27.864 40.0554 27.6644 40.6565 27.2651 41.0787C26.8659 41.5008 26.2969 41.7119 25.5581 41.7119H24.0025ZM24.5945 41.1337H25.5168C26.0904 41.1337 26.5218 40.98 26.8108 40.6726C27.0999 40.3605 27.2445 39.8948 27.2445 39.2753C27.2445 38.6466 27.0999 38.1786 26.8108 37.8711C26.5218 37.5591 26.0904 37.4031 25.5168 37.4031H24.5945V41.1337ZM29.7775 41.7945C29.4012 41.7945 29.1007 41.7073 28.8758 41.533C28.6556 41.3586 28.5454 41.1154 28.5454 40.8033C28.5454 40.4913 28.6372 40.2458 28.8208 40.0668C29.0043 39.8879 29.2957 39.7617 29.6949 39.6883L30.989 39.4474C30.989 39.1399 30.9155 38.9105 30.7687 38.7591C30.6264 38.6076 30.4108 38.5319 30.1217 38.5319C29.8693 38.5319 29.6697 38.5893 29.5228 38.704C29.376 38.8141 29.2751 38.9747 29.22 39.1858L28.6074 39.1376C28.6762 38.7935 28.8414 38.5159 29.103 38.3048C29.3691 38.0891 29.7087 37.9813 30.1217 37.9813C30.5897 37.9813 30.9477 38.1143 31.1954 38.3805C31.4432 38.642 31.5671 39.0046 31.5671 39.468V40.9754C31.5671 41.058 31.5809 41.1177 31.6084 41.1544C31.6406 41.1865 31.691 41.2026 31.7599 41.2026H31.9044V41.7119C31.8861 41.7165 31.8562 41.7188 31.8149 41.7188C31.7736 41.7234 31.73 41.7257 31.6841 41.7257C31.519 41.7257 31.3836 41.7004 31.278 41.65C31.1771 41.5949 31.1037 41.5123 31.0578 41.4022C31.0119 41.2875 30.989 41.1383 30.989 40.9548L31.0578 40.9685C31.0257 41.1246 30.9477 41.2668 30.8238 41.3953C30.6999 41.5192 30.5461 41.6178 30.3626 41.6913C30.179 41.7601 29.984 41.7945 29.7775 41.7945ZM29.8326 41.2852C30.0758 41.2852 30.2823 41.2393 30.4521 41.1475C30.6264 41.0511 30.7595 40.9226 30.8513 40.762C30.9431 40.5968 30.989 40.4133 30.989 40.2114V39.9498L29.8051 40.1701C29.5573 40.216 29.3852 40.2871 29.2888 40.3835C29.197 40.4752 29.1512 40.5968 29.1512 40.7483C29.1512 40.9181 29.2108 41.0511 29.3301 41.1475C29.454 41.2393 29.6215 41.2852 29.8326 41.2852ZM33.8724 41.7945C33.5466 41.7945 33.269 41.7417 33.0396 41.6362C32.8147 41.5307 32.6381 41.3861 32.5096 41.2026C32.3857 41.0144 32.3146 40.801 32.2962 40.5624L32.9019 40.5211C32.9386 40.7414 33.0327 40.9181 33.1841 41.0511C33.3356 41.1796 33.565 41.2439 33.8724 41.2439C34.1202 41.2439 34.3176 41.2049 34.4644 41.1268C34.6158 41.0443 34.6915 40.9135 34.6915 40.7345C34.6915 40.6381 34.6686 40.5578 34.6227 40.4936C34.5768 40.4294 34.4873 40.3743 34.3543 40.3284C34.2212 40.2779 34.0239 40.2297 33.7623 40.1839C33.4136 40.1196 33.1382 40.0416 32.9363 39.9498C32.739 39.8535 32.5968 39.7365 32.5096 39.5988C32.427 39.4565 32.3857 39.2891 32.3857 39.0963C32.3857 38.7705 32.505 38.5044 32.7436 38.2979C32.9822 38.0868 33.3218 37.9813 33.7623 37.9813C34.0606 37.9813 34.3107 38.0363 34.5126 38.1465C34.7191 38.252 34.8797 38.3943 34.9944 38.5732C35.1137 38.7476 35.1917 38.9403 35.2284 39.1514L34.6227 39.1927C34.5952 39.0642 34.5447 38.9518 34.4713 38.8554C34.3979 38.7545 34.3015 38.6765 34.1822 38.6214C34.0629 38.5617 33.9206 38.5319 33.7554 38.5319C33.4939 38.5319 33.3011 38.5824 33.1772 38.6833C33.0534 38.7843 32.9914 38.9128 32.9914 39.0688C32.9914 39.1881 33.0189 39.2868 33.074 39.3648C33.1337 39.4382 33.2277 39.5001 33.3562 39.5506C33.4847 39.5965 33.6568 39.6378 33.8724 39.6745C34.2441 39.7388 34.5332 39.8168 34.7397 39.9085C34.9462 40.0003 35.0908 40.1127 35.1734 40.2458C35.2559 40.3789 35.2972 40.5418 35.2972 40.7345C35.2972 40.9594 35.233 41.1521 35.1045 41.3127C34.9806 41.4687 34.8108 41.588 34.5952 41.6706C34.3841 41.7532 34.1432 41.7945 33.8724 41.7945ZM36.0864 41.7119V36.8249H36.6646V38.8692L36.5957 38.8554C36.6416 38.6535 36.7196 38.4883 36.8298 38.3598C36.9399 38.2314 37.0753 38.1373 37.2359 38.0776C37.3965 38.0134 37.5731 37.9813 37.7659 37.9813C38.0274 37.9813 38.2477 38.0409 38.4266 38.1602C38.6102 38.2749 38.7479 38.4378 38.8396 38.6489C38.936 38.8554 38.9842 39.094 38.9842 39.3648V41.7119H38.406V39.53C38.406 39.1766 38.3418 38.9151 38.2133 38.7453C38.0894 38.5755 37.8989 38.4906 37.642 38.4906C37.3483 38.4906 37.112 38.5801 36.933 38.7591C36.754 38.938 36.6646 39.1973 36.6646 39.5368V41.7119H36.0864ZM41.6912 41.7945C41.4389 41.7945 41.214 41.7394 41.0167 41.6293C40.8194 41.5146 40.6679 41.3586 40.5624 41.1613L40.5418 41.7119H40.0186V36.8249H40.5968V38.5732C40.6886 38.4218 40.8308 38.2864 41.0236 38.1671C41.2163 38.0432 41.4389 37.9813 41.6912 37.9813C42.0124 37.9813 42.2901 38.0593 42.5241 38.2153C42.7581 38.3713 42.9394 38.5916 43.0679 38.8761C43.1963 39.1606 43.2606 39.4978 43.2606 39.8879C43.2606 40.2779 43.1963 40.6152 43.0679 40.8997C42.9394 41.1842 42.7581 41.4045 42.5241 41.5605C42.2901 41.7165 42.0124 41.7945 41.6912 41.7945ZM41.6568 41.2439C41.9643 41.2439 42.2075 41.1223 42.3864 40.8791C42.5654 40.6359 42.6549 40.3055 42.6549 39.8879C42.6549 39.4657 42.5654 39.1353 42.3864 38.8967C42.2075 38.6535 41.9689 38.5319 41.6706 38.5319C41.4457 38.5319 41.253 38.587 41.0924 38.6971C40.9318 38.8026 40.8079 38.9564 40.7207 39.1583C40.6381 39.3602 40.5968 39.6034 40.5968 39.8879C40.5968 40.1632 40.6381 40.4041 40.7207 40.6106C40.8079 40.8125 40.9295 40.9685 41.0855 41.0787C41.2461 41.1888 41.4366 41.2439 41.6568 41.2439ZM45.4698 41.7945C45.1348 41.7945 44.8411 41.7165 44.5888 41.5605C44.3364 41.4045 44.1414 41.1842 44.0037 40.8997C43.866 40.6106 43.7972 40.2733 43.7972 39.8879C43.7972 39.4978 43.866 39.1606 44.0037 38.8761C44.1414 38.5916 44.3364 38.3713 44.5888 38.2153C44.8411 38.0593 45.1348 37.9813 45.4698 37.9813C45.8048 37.9813 46.0962 38.0593 46.3439 38.2153C46.5963 38.3713 46.7914 38.5916 46.929 38.8761C47.0667 39.1606 47.1355 39.4978 47.1355 39.8879C47.1355 40.2733 47.0667 40.6106 46.929 40.8997C46.7914 41.1842 46.5963 41.4045 46.3439 41.5605C46.0962 41.7165 45.8048 41.7945 45.4698 41.7945ZM45.4698 41.2439C45.8048 41.2439 46.064 41.1246 46.2476 40.8859C46.4357 40.6427 46.5298 40.3101 46.5298 39.8879C46.5298 39.4657 46.4357 39.1353 46.2476 38.8967C46.064 38.6535 45.8048 38.5319 45.4698 38.5319C45.1348 38.5319 44.8733 38.6535 44.6851 38.8967C44.497 39.1353 44.4029 39.4657 44.4029 39.8879C44.4029 40.3101 44.497 40.6427 44.6851 40.8859C44.8733 41.1246 45.1348 41.2439 45.4698 41.2439ZM49.0019 41.7945C48.6256 41.7945 48.325 41.7073 48.1002 41.533C47.8799 41.3586 47.7698 41.1154 47.7698 40.8033C47.7698 40.4913 47.8616 40.2458 48.0451 40.0668C48.2287 39.8879 48.52 39.7617 48.9193 39.6883L50.2133 39.4474C50.2133 39.1399 50.1399 38.9105 49.993 38.7591C49.8508 38.6076 49.6351 38.5319 49.346 38.5319C49.0936 38.5319 48.894 38.5893 48.7472 38.704C48.6003 38.8141 48.4994 38.9747 48.4443 39.1858L47.8317 39.1376C47.9006 38.7935 48.0658 38.5159 48.3273 38.3048C48.5935 38.0891 48.933 37.9813 49.346 37.9813C49.8141 37.9813 50.172 38.1143 50.4198 38.3805C50.6676 38.642 50.7915 39.0046 50.7915 39.468V40.9754C50.7915 41.058 50.8052 41.1177 50.8328 41.1544C50.8649 41.1865 50.9154 41.2026 50.9842 41.2026H51.1287V41.7119C51.1104 41.7165 51.0806 41.7188 51.0393 41.7188C50.998 41.7234 50.9544 41.7257 50.9085 41.7257C50.7433 41.7257 50.6079 41.7004 50.5024 41.65C50.4014 41.5949 50.328 41.5123 50.2821 41.4022C50.2362 41.2875 50.2133 41.1383 50.2133 40.9548L50.2821 40.9685C50.25 41.1246 50.172 41.2668 50.0481 41.3953C49.9242 41.5192 49.7705 41.6178 49.5869 41.6913C49.4034 41.7601 49.2083 41.7945 49.0019 41.7945ZM49.0569 41.2852C49.3001 41.2852 49.5066 41.2393 49.6764 41.1475C49.8508 41.0511 49.9838 40.9226 50.0756 40.762C50.1674 40.5968 50.2133 40.4133 50.2133 40.2114V39.9498L49.0294 40.1701C48.7816 40.216 48.6095 40.2871 48.5132 40.3835C48.4214 40.4752 48.3755 40.5968 48.3755 40.7483C48.3755 40.9181 48.4351 41.0511 48.5545 41.1475C48.6783 41.2393 48.8458 41.2852 49.0569 41.2852ZM51.7818 41.7119V38.0639H52.2911L52.3187 38.9862L52.2636 38.9656C52.3095 38.6535 52.4081 38.4264 52.5596 38.2841C52.7156 38.1373 52.9221 38.0639 53.179 38.0639H53.537V38.6145H53.1859C53.0024 38.6145 52.8487 38.6489 52.7248 38.7178C52.6055 38.782 52.5137 38.8807 52.4494 39.0137C52.3898 39.1422 52.36 39.3074 52.36 39.5093V41.7119H51.7818ZM55.4083 41.7945C55.0916 41.7945 54.8163 41.7165 54.5823 41.5605C54.3529 41.4045 54.1762 41.1842 54.0523 40.8997C53.9284 40.6152 53.8664 40.2779 53.8664 39.8879C53.8664 39.4978 53.9284 39.1606 54.0523 38.8761C54.1762 38.5916 54.3529 38.3713 54.5823 38.2153C54.8163 38.0593 55.0916 37.9813 55.4083 37.9813C55.6515 37.9813 55.874 38.034 56.0759 38.1396C56.2778 38.2405 56.4293 38.3851 56.5302 38.5732V36.8249H57.1084V41.7119H56.5853L56.5646 41.1613C56.4637 41.3586 56.31 41.5146 56.1035 41.6293C55.897 41.7394 55.6652 41.7945 55.4083 41.7945ZM55.5253 41.2439C55.7409 41.2439 55.9222 41.1888 56.069 41.0787C56.2205 40.9685 56.3352 40.8125 56.4132 40.6106C56.4912 40.4041 56.5302 40.1632 56.5302 39.8879C56.5302 39.6034 56.4912 39.3602 56.4132 39.1583C56.3352 38.9564 56.2205 38.8026 56.069 38.6971C55.9222 38.587 55.7409 38.5319 55.5253 38.5319C55.2041 38.5319 54.9471 38.6535 54.7544 38.8967C54.5662 39.1353 54.4722 39.4657 54.4722 39.8879C54.4722 40.3055 54.5662 40.6359 54.7544 40.8791C54.9471 41.1223 55.2041 41.2439 55.5253 41.2439Z" fill="#323A2C"/>
<g opacity="0.999741">
<path d="M11.3238 54.3389C11.3238 53.3886 12.0943 52.6182 13.0446 52.6182H18.207C19.1573 52.6182 19.9277 53.3886 19.9277 54.3389V59.5013C19.9277 60.4516 19.1573 61.2221 18.207 61.2221H13.0446C12.0943 61.2221 11.3238 60.4516 11.3238 59.5013V54.3389Z" fill="#E9E9E9"/>
</g>
<path d="M24.0025 58.9199V54.0329H25.8541C26.1983 54.0329 26.4942 54.0926 26.742 54.2119C26.9898 54.3312 27.1802 54.5033 27.3133 54.7281C27.451 54.9484 27.5198 55.2099 27.5198 55.5128C27.5198 55.733 27.467 55.9304 27.3615 56.1047C27.2605 56.2745 27.1298 56.4099 26.9692 56.5108C26.8086 56.6118 26.6411 56.6668 26.4667 56.676L26.4254 56.6141C26.7237 56.6141 26.9577 56.6829 27.1275 56.8206C27.3018 56.9582 27.4028 57.1785 27.4303 57.4814L27.568 58.9199H26.9692L26.8453 57.5433C26.8269 57.3414 26.7535 57.1923 26.625 57.0959C26.5011 56.9995 26.2969 56.9514 26.0124 56.9514H24.5945V58.9199H24.0025ZM24.5945 56.3732H25.9298C26.2281 56.3732 26.4644 56.2975 26.6388 56.146C26.8131 55.9946 26.9003 55.7789 26.9003 55.499C26.9003 55.2145 26.8108 54.9965 26.6319 54.8451C26.4529 54.6891 26.1937 54.6111 25.8541 54.6111H24.5945V56.3732ZM29.8887 59.0025C29.5445 59.0025 29.2463 58.9245 28.9939 58.7685C28.7461 58.6125 28.5534 58.3922 28.4157 58.1077C28.2826 57.8186 28.2161 57.4814 28.2161 57.0959C28.2161 56.7104 28.2826 56.3755 28.4157 56.091C28.5534 55.8065 28.7438 55.5862 28.987 55.4302C29.2348 55.2696 29.5262 55.1893 29.8611 55.1893C30.1778 55.1893 30.4577 55.265 30.7009 55.4164C30.9441 55.5633 31.1322 55.7789 31.2653 56.0634C31.403 56.3479 31.4718 56.6944 31.4718 57.1028V57.2749H28.8218C28.8447 57.6649 28.948 57.9586 29.1315 58.1559C29.3197 58.3532 29.5721 58.4519 29.8887 58.4519C30.1273 58.4519 30.3223 58.3968 30.4737 58.2867C30.6298 58.172 30.7376 58.0228 30.7972 57.8393L31.4167 57.8875C31.3204 58.2133 31.1368 58.4817 30.8661 58.6928C30.5999 58.8993 30.2741 59.0025 29.8887 59.0025ZM28.8218 56.7655H30.8385C30.811 56.4122 30.7078 56.1529 30.5288 55.9877C30.3544 55.8225 30.1319 55.7399 29.8611 55.7399C29.5812 55.7399 29.3495 55.8271 29.1659 56.0015C28.987 56.1713 28.8723 56.4259 28.8218 56.7655ZM32.255 59.9524V55.2719H32.7918L32.8056 56.0565L32.723 56.0152C32.8148 55.7445 32.9662 55.5403 33.1773 55.4026C33.393 55.2604 33.6408 55.1893 33.9207 55.1893C34.2832 55.1893 34.5792 55.2788 34.8086 55.4577C35.0426 55.6367 35.2147 55.8707 35.3248 56.1598C35.4396 56.4489 35.4969 56.7609 35.4969 57.0959C35.4969 57.4309 35.4396 57.7429 35.3248 58.032C35.2147 58.3211 35.0426 58.5551 34.8086 58.7341C34.5792 58.913 34.2832 59.0025 33.9207 59.0025C33.7325 59.0025 33.5559 58.9704 33.3907 58.9062C33.2301 58.8419 33.0924 58.7524 32.9777 58.6377C32.8676 58.523 32.7918 58.3876 32.7505 58.2316L32.8331 58.1352V59.9524H32.255ZM33.8656 58.4519C34.1822 58.4519 34.4323 58.3326 34.6159 58.0939C34.7994 57.8553 34.8912 57.5226 34.8912 57.0959C34.8912 56.6691 34.7994 56.3365 34.6159 56.0978C34.4323 55.8592 34.1822 55.7399 33.8656 55.7399C33.6545 55.7399 33.471 55.7904 33.315 55.8914C33.1635 55.9923 33.0442 56.1437 32.957 56.3456C32.8744 56.5475 32.8331 56.7976 32.8331 57.0959C32.8331 57.3942 32.8744 57.6443 32.957 57.8462C33.0396 58.0481 33.1589 58.1995 33.315 58.3004C33.471 58.4014 33.6545 58.4519 33.8656 58.4519ZM37.7061 59.0025C37.3711 59.0025 37.0775 58.9245 36.8251 58.7685C36.5727 58.6125 36.3777 58.3922 36.24 58.1077C36.1024 57.8186 36.0335 57.4814 36.0335 57.0959C36.0335 56.7059 36.1024 56.3686 36.24 56.0841C36.3777 55.7996 36.5727 55.5793 36.8251 55.4233C37.0775 55.2673 37.3711 55.1893 37.7061 55.1893C38.0411 55.1893 38.3325 55.2673 38.5803 55.4233C38.8327 55.5793 39.0277 55.7996 39.1653 56.0841C39.303 56.3686 39.3718 56.7059 39.3718 57.0959C39.3718 57.4814 39.303 57.8186 39.1653 58.1077C39.0277 58.3922 38.8327 58.6125 38.5803 58.7685C38.3325 58.9245 38.0411 59.0025 37.7061 59.0025ZM37.7061 58.4519C38.0411 58.4519 38.3004 58.3326 38.4839 58.0939C38.6721 57.8507 38.7661 57.5181 38.7661 57.0959C38.7661 56.6737 38.6721 56.3433 38.4839 56.1047C38.3004 55.8615 38.0411 55.7399 37.7061 55.7399C37.3711 55.7399 37.1096 55.8615 36.9214 56.1047C36.7333 56.3433 36.6392 56.6737 36.6392 57.0959C36.6392 57.5181 36.7333 57.8507 36.9214 58.0939C37.1096 58.3326 37.3711 58.4519 37.7061 58.4519ZM40.1598 58.9199V55.2719H40.6691L40.6967 56.1942L40.6416 56.1736C40.6875 55.8615 40.7862 55.6344 40.9376 55.4921C41.0936 55.3453 41.3001 55.2719 41.5571 55.2719H41.915V55.8225H41.5639C41.3804 55.8225 41.2267 55.8569 41.1028 55.9258C40.9835 55.99 40.8917 56.0887 40.8275 56.2217C40.7678 56.3502 40.738 56.5154 40.738 56.7173V58.9199H40.1598ZM43.7604 58.9199C43.43 58.9199 43.1845 58.8442 43.0239 58.6928C42.8679 58.5414 42.7898 58.305 42.7898 57.9838V54.4184H43.368V57.9701C43.368 58.1352 43.4047 58.25 43.4782 58.3142C43.5516 58.3785 43.664 58.4106 43.8154 58.4106H44.3385V58.9199H43.7604ZM42.253 55.7812V55.2719H44.3385V55.7812H42.253ZM46.3414 59.0025C46.0156 59.0025 45.7379 58.9497 45.5085 58.8442C45.2837 58.7387 45.107 58.5941 44.9785 58.4106C44.8546 58.2224 44.7835 58.0091 44.7651 57.7704L45.3708 57.7291C45.4076 57.9494 45.5016 58.1261 45.6531 58.2591C45.8045 58.3876 46.0339 58.4519 46.3414 58.4519C46.5892 58.4519 46.7865 58.4129 46.9333 58.3349C47.0847 58.2523 47.1605 58.1215 47.1605 57.9425C47.1605 57.8462 47.1375 57.7659 47.0916 57.7016C47.0457 57.6374 46.9563 57.5823 46.8232 57.5364C46.6901 57.4859 46.4928 57.4378 46.2312 57.3919C45.8825 57.3276 45.6072 57.2496 45.4053 57.1578C45.2079 57.0615 45.0657 56.9445 44.9785 56.8068C44.8959 56.6646 44.8546 56.4971 44.8546 56.3043C44.8546 55.9785 44.9739 55.7124 45.2125 55.5059C45.4512 55.2948 45.7907 55.1893 46.2312 55.1893C46.5295 55.1893 46.7796 55.2443 46.9815 55.3545C47.188 55.46 47.3486 55.6023 47.4633 55.7812C47.5826 55.9556 47.6606 56.1483 47.6973 56.3594L47.0916 56.4007C47.0641 56.2722 47.0136 56.1598 46.9402 56.0634C46.8668 55.9625 46.7704 55.8845 46.6511 55.8294C46.5318 55.7697 46.3896 55.7399 46.2244 55.7399C45.9628 55.7399 45.7701 55.7904 45.6462 55.8914C45.5223 55.9923 45.4603 56.1208 45.4603 56.2768C45.4603 56.3961 45.4879 56.4948 45.5429 56.5728C45.6026 56.6462 45.6967 56.7081 45.8251 56.7586C45.9536 56.8045 46.1257 56.8458 46.3414 56.8825C46.7131 56.9468 47.0021 57.0248 47.2086 57.1165C47.4151 57.2083 47.5597 57.3207 47.6423 57.4538C47.7249 57.5869 47.7662 57.7498 47.7662 57.9425C47.7662 58.1674 47.7019 58.3601 47.5734 58.5207C47.4496 58.6767 47.2798 58.796 47.0641 58.8786C46.853 58.9612 46.6121 59.0025 46.3414 59.0025Z" fill="#323A2C"/>
<g opacity="0.999741">
<path d="M11.3238 68.1055C11.3238 67.1552 12.0943 66.3848 13.0446 66.3848H18.207C19.1573 66.3848 19.9277 67.1552 19.9277 68.1055V73.2679C19.9277 74.2182 19.1573 74.9887 18.207 74.9887H13.0446C12.0943 74.9887 11.3238 74.2182 11.3238 73.2679V68.1055Z" fill="#E9E9E9"/>
</g>
<path d="M25.682 72.7967C25.3057 72.7967 24.9776 72.7255 24.6977 72.5833C24.4178 72.441 24.1953 72.246 24.0301 71.9982C23.8695 71.7458 23.7754 71.4544 23.7479 71.1241L24.3673 71.0828C24.3995 71.326 24.4706 71.5325 24.5807 71.7022C24.6908 71.872 24.8377 72.0005 25.0212 72.0877C25.2094 72.1749 25.4342 72.2185 25.6958 72.2185C25.9252 72.2185 26.1202 72.1886 26.2808 72.129C26.4415 72.0693 26.5631 71.9822 26.6457 71.8674C26.7328 71.7527 26.7764 71.6128 26.7764 71.4476C26.7764 71.2961 26.7397 71.1631 26.6663 71.0483C26.5975 70.929 26.4621 70.8212 26.2602 70.7248C26.0629 70.6239 25.7692 70.5252 25.3792 70.4289C25.0029 70.3325 24.7023 70.227 24.4775 70.1122C24.2572 69.9975 24.0966 69.8576 23.9957 69.6924C23.8993 69.5272 23.8511 69.323 23.8511 69.0798C23.8511 68.8044 23.9154 68.5635 24.0438 68.357C24.1769 68.146 24.365 67.9831 24.6083 67.8683C24.8515 67.749 25.1405 67.6894 25.4755 67.6894C25.8334 67.6894 26.1409 67.7582 26.3979 67.8959C26.6548 68.0289 26.859 68.2125 27.0105 68.4465C27.1619 68.6805 27.256 68.9467 27.2927 69.245L26.6732 69.2863C26.6457 69.0889 26.5814 68.9146 26.4805 68.7631C26.3841 68.6071 26.251 68.4855 26.0812 68.3983C25.9115 68.3112 25.705 68.2676 25.4618 68.2676C25.1589 68.2676 24.918 68.341 24.739 68.4878C24.5601 68.6301 24.4706 68.8182 24.4706 69.0522C24.4706 69.2037 24.505 69.3299 24.5738 69.4308C24.6473 69.5272 24.7757 69.6144 24.9593 69.6924C25.1428 69.7658 25.4067 69.8461 25.7508 69.9333C26.1592 70.0342 26.4828 70.1558 26.7214 70.2981C26.9646 70.4357 27.1366 70.5964 27.2376 70.7799C27.3431 70.9634 27.3959 71.1722 27.3959 71.4063C27.3959 71.6908 27.3225 71.9386 27.1757 72.1496C27.0288 72.3561 26.8269 72.5167 26.5699 72.6315C26.313 72.7416 26.017 72.7967 25.682 72.7967ZM29.5204 72.7691C29.1579 72.7691 28.8665 72.6475 28.6462 72.4043C28.4305 72.1565 28.3227 71.817 28.3227 71.3856V69.0385H28.9009V71.2273C28.9009 71.5806 28.9628 71.8422 29.0867 72.012C29.2152 72.1772 29.4102 72.2598 29.6718 72.2598C29.9609 72.2598 30.188 72.168 30.3532 71.9844C30.5184 71.7963 30.601 71.5393 30.601 71.2135V69.0385H31.1792V72.6865H30.6286V71.7848L30.718 71.833C30.6446 72.1313 30.5047 72.363 30.2982 72.5282C30.0917 72.6888 29.8324 72.7691 29.5204 72.7691ZM33.8536 72.7691C33.6012 72.7691 33.3764 72.7141 33.1791 72.6039C32.9818 72.4892 32.8303 72.3332 32.7248 72.1359L32.7041 72.6865H32.181V67.7995H32.7592V69.5478C32.851 69.3964 32.9932 69.261 33.186 69.1417C33.3787 69.0178 33.6012 68.9559 33.8536 68.9559C34.1748 68.9559 34.4525 69.0339 34.6865 69.1899C34.9205 69.3459 35.1018 69.5662 35.2302 69.8507C35.3587 70.1352 35.423 70.4725 35.423 70.8625C35.423 71.2525 35.3587 71.5898 35.2302 71.8743C35.1018 72.1588 34.9205 72.3791 34.6865 72.5351C34.4525 72.6911 34.1748 72.7691 33.8536 72.7691ZM33.8192 72.2185C34.1267 72.2185 34.3699 72.0969 34.5488 71.8537C34.7278 71.6105 34.8173 71.2801 34.8173 70.8625C34.8173 70.4403 34.7278 70.1099 34.5488 69.8713C34.3699 69.6281 34.1312 69.5065 33.833 69.5065C33.6081 69.5065 33.4154 69.5616 33.2548 69.6717C33.0942 69.7773 32.9703 69.931 32.8831 70.1329C32.8005 70.3348 32.7592 70.578 32.7592 70.8625C32.7592 71.1378 32.8005 71.3787 32.8831 71.5852C32.9703 71.7871 33.0919 71.9431 33.2479 72.0533C33.4085 72.1634 33.5989 72.2185 33.8192 72.2185ZM36.2074 72.6865V69.0385H36.7374L36.758 69.9608L36.6754 69.9333C36.7167 69.7314 36.7879 69.5593 36.8888 69.417C36.9943 69.2702 37.1228 69.1578 37.2743 69.0798C37.4257 68.9972 37.5932 68.9559 37.7767 68.9559C38.0934 68.9559 38.3503 69.0431 38.5476 69.2174C38.7495 69.3918 38.8757 69.635 38.9262 69.947L38.8161 69.9402C38.8528 69.7291 38.9193 69.5524 39.0157 69.4102C39.1166 69.2633 39.2451 69.1509 39.4011 69.0729C39.5572 68.9949 39.7361 68.9559 39.938 68.9559C40.1996 68.9559 40.4198 69.0109 40.5988 69.1211C40.7778 69.2266 40.9131 69.3826 41.0049 69.5891C41.0967 69.7956 41.1426 70.0457 41.1426 70.3394V72.6865H40.5644V70.4633C40.5644 70.1329 40.5001 69.8851 40.3717 69.7199C40.2432 69.5501 40.0527 69.4652 39.8004 69.4652C39.6306 69.4652 39.4814 69.5065 39.353 69.5891C39.2291 69.6717 39.1327 69.791 39.0639 69.947C38.995 70.0985 38.9606 70.2843 38.9606 70.5046V72.6865H38.3824V70.5046C38.3824 70.1788 38.3251 69.9241 38.2104 69.7405C38.0956 69.557 37.9029 69.4652 37.6322 69.4652C37.4624 69.4652 37.3133 69.5065 37.1848 69.5891C37.0609 69.6717 36.9622 69.791 36.8888 69.947C36.82 70.1031 36.7856 70.2889 36.7856 70.5046V72.6865H36.2074ZM42.1763 72.6865V69.0385H42.7545V72.6865H42.1763ZM42.1626 68.4672V67.7926H42.7683V68.4672H42.1626ZM45.118 72.7691C44.7922 72.7691 44.5146 72.7164 44.2851 72.6108C44.0603 72.5053 43.8836 72.3607 43.7551 72.1772C43.6312 71.989 43.5601 71.7757 43.5418 71.537L44.1475 71.4957C44.1842 71.716 44.2783 71.8927 44.4297 72.0257C44.5811 72.1542 44.8106 72.2185 45.118 72.2185C45.3658 72.2185 45.5631 72.1795 45.7099 72.1015C45.8614 72.0189 45.9371 71.8881 45.9371 71.7091C45.9371 71.6128 45.9141 71.5325 45.8683 71.4682C45.8224 71.404 45.7329 71.3489 45.5998 71.303C45.4667 71.2525 45.2694 71.2044 45.0079 71.1585C44.6591 71.0942 44.3838 71.0162 44.1819 70.9244C43.9846 70.8281 43.8423 70.7111 43.7551 70.5734C43.6725 70.4312 43.6312 70.2637 43.6312 70.0709C43.6312 69.7451 43.7506 69.479 43.9892 69.2725C44.2278 69.0614 44.5674 68.9559 45.0079 68.9559C45.3061 68.9559 45.5562 69.0109 45.7581 69.1211C45.9646 69.2266 46.1252 69.3689 46.2399 69.5478C46.3593 69.7222 46.4373 69.9149 46.474 70.126L45.8683 70.1673C45.8407 70.0388 45.7903 69.9264 45.7168 69.83C45.6434 69.7291 45.547 69.6511 45.4277 69.596C45.3084 69.5364 45.1662 69.5065 45.001 69.5065C44.7394 69.5065 44.5467 69.557 44.4228 69.658C44.2989 69.7589 44.237 69.8874 44.237 70.0434C44.237 70.1627 44.2645 70.2614 44.3196 70.3394C44.3792 70.4128 44.4733 70.4747 44.6018 70.5252C44.7303 70.5711 44.9023 70.6124 45.118 70.6491C45.4897 70.7134 45.7788 70.7914 45.9853 70.8831C46.1918 70.9749 46.3363 71.0873 46.4189 71.2204C46.5015 71.3535 46.5428 71.5164 46.5428 71.7091C46.5428 71.934 46.4786 72.1267 46.3501 72.2873C46.2262 72.4433 46.0564 72.5626 45.8407 72.6452C45.6296 72.7278 45.3887 72.7691 45.118 72.7691ZM48.6604 72.7691C48.3346 72.7691 48.057 72.7164 47.8275 72.6108C47.6027 72.5053 47.426 72.3607 47.2975 72.1772C47.1736 71.989 47.1025 71.7757 47.0842 71.537L47.6899 71.4957C47.7266 71.716 47.8206 71.8927 47.9721 72.0257C48.1235 72.1542 48.3529 72.2185 48.6604 72.2185C48.9082 72.2185 49.1055 72.1795 49.2523 72.1015C49.4038 72.0189 49.4795 71.8881 49.4795 71.7091C49.4795 71.6128 49.4565 71.5325 49.4106 71.4682C49.3648 71.404 49.2753 71.3489 49.1422 71.303C49.0091 71.2525 48.8118 71.2044 48.5503 71.1585C48.2015 71.0942 47.9262 71.0162 47.7243 70.9244C47.527 70.8281 47.3847 70.7111 47.2975 70.5734C47.2149 70.4312 47.1736 70.2637 47.1736 70.0709C47.1736 69.7451 47.2929 69.479 47.5316 69.2725C47.7702 69.0614 48.1097 68.9559 48.5503 68.9559C48.8485 68.9559 49.0986 69.0109 49.3005 69.1211C49.507 69.2266 49.6676 69.3689 49.7823 69.5478C49.9016 69.7222 49.9797 69.9149 50.0164 70.126L49.4106 70.1673C49.3831 70.0388 49.3326 69.9264 49.2592 69.83C49.1858 69.7291 49.0894 69.6511 48.9701 69.596C48.8508 69.5364 48.7086 69.5065 48.5434 69.5065C48.2818 69.5065 48.0891 69.557 47.9652 69.658C47.8413 69.7589 47.7793 69.8874 47.7793 70.0434C47.7793 70.1627 47.8069 70.2614 47.8619 70.3394C47.9216 70.4128 48.0157 70.4747 48.1442 70.5252C48.2726 70.5711 48.4447 70.6124 48.6604 70.6491C49.0321 70.7134 49.3212 70.7914 49.5277 70.8831C49.7342 70.9749 49.8787 71.0873 49.9613 71.2204C50.0439 71.3535 50.0852 71.5164 50.0852 71.7091C50.0852 71.934 50.0209 72.1267 49.8925 72.2873C49.7686 72.4433 49.5988 72.5626 49.3831 72.6452C49.172 72.7278 48.9311 72.7691 48.6604 72.7691ZM50.8743 72.6865V69.0385H51.4525V72.6865H50.8743ZM50.8606 68.4672V67.7926H51.4663V68.4672H50.8606ZM53.9124 72.7691C53.5774 72.7691 53.2837 72.6911 53.0313 72.5351C52.7789 72.3791 52.5839 72.1588 52.4463 71.8743C52.3086 71.5852 52.2398 71.248 52.2398 70.8625C52.2398 70.4725 52.3086 70.1352 52.4463 69.8507C52.5839 69.5662 52.7789 69.3459 53.0313 69.1899C53.2837 69.0339 53.5774 68.9559 53.9124 68.9559C54.2473 68.9559 54.5387 69.0339 54.7865 69.1899C55.0389 69.3459 55.2339 69.5662 55.3716 69.8507C55.5093 70.1352 55.5781 70.4725 55.5781 70.8625C55.5781 71.248 55.5093 71.5852 55.3716 71.8743C55.2339 72.1588 55.0389 72.3791 54.7865 72.5351C54.5387 72.6911 54.2473 72.7691 53.9124 72.7691ZM53.9124 72.2185C54.2473 72.2185 54.5066 72.0992 54.6902 71.8605C54.8783 71.6173 54.9724 71.2847 54.9724 70.8625C54.9724 70.4403 54.8783 70.1099 54.6902 69.8713C54.5066 69.6281 54.2473 69.5065 53.9124 69.5065C53.5774 69.5065 53.3158 69.6281 53.1277 69.8713C52.9396 70.1099 52.8455 70.4403 52.8455 70.8625C52.8455 71.2847 52.9396 71.6173 53.1277 71.8605C53.3158 72.0992 53.5774 72.2185 53.9124 72.2185ZM56.366 72.6865V69.0385H56.896L56.9167 69.9677L56.8479 69.9057C56.8937 69.6901 56.974 69.5134 57.0888 69.3757C57.2035 69.2335 57.3411 69.128 57.5018 69.0591C57.6669 68.9903 57.8436 68.9559 58.0318 68.9559C58.3117 68.9559 58.5411 69.0178 58.7201 69.1417C58.9036 69.2656 59.039 69.4331 59.1262 69.6442C59.2179 69.8507 59.2638 70.0824 59.2638 70.3394V72.6865H58.6856V70.5046C58.6856 70.2797 58.6581 70.0916 58.6031 69.9402C58.5526 69.7841 58.47 69.6671 58.3553 69.5891C58.2405 69.5065 58.0914 69.4652 57.9079 69.4652C57.6279 69.4652 57.3962 69.5547 57.2127 69.7337C57.0337 69.908 56.9442 70.165 56.9442 70.5046V72.6865H56.366ZM61.6133 72.7691C61.2875 72.7691 61.0099 72.7164 60.7804 72.6108C60.5556 72.5053 60.3789 72.3607 60.2504 72.1772C60.1265 71.989 60.0554 71.7757 60.037 71.537L60.6428 71.4957C60.6795 71.716 60.7735 71.8927 60.925 72.0257C61.0764 72.1542 61.3058 72.2185 61.6133 72.2185C61.8611 72.2185 62.0584 72.1795 62.2052 72.1015C62.3567 72.0189 62.4324 71.8881 62.4324 71.7091C62.4324 71.6128 62.4094 71.5325 62.3635 71.4682C62.3177 71.404 62.2282 71.3489 62.0951 71.303C61.962 71.2525 61.7647 71.2044 61.5032 71.1585C61.1544 71.0942 60.8791 71.0162 60.6772 70.9244C60.4799 70.8281 60.3376 70.7111 60.2504 70.5734C60.1678 70.4312 60.1265 70.2637 60.1265 70.0709C60.1265 69.7451 60.2458 69.479 60.4845 69.2725C60.7231 69.0614 61.0626 68.9559 61.5032 68.9559C61.8014 68.9559 62.0515 69.0109 62.2534 69.1211C62.4599 69.2266 62.6205 69.3689 62.7352 69.5478C62.8545 69.7222 62.9325 69.9149 62.9693 70.126L62.3635 70.1673C62.336 70.0388 62.2855 69.9264 62.2121 69.83C62.1387 69.7291 62.0423 69.6511 61.923 69.596C61.8037 69.5364 61.6615 69.5065 61.4963 69.5065C61.2347 69.5065 61.042 69.557 60.9181 69.658C60.7942 69.7589 60.7322 69.8874 60.7322 70.0434C60.7322 70.1627 60.7598 70.2614 60.8148 70.3394C60.8745 70.4128 60.9686 70.4747 61.097 70.5252C61.2255 70.5711 61.3976 70.6124 61.6133 70.6491C61.985 70.7134 62.2741 70.7914 62.4806 70.8831C62.687 70.9749 62.8316 71.0873 62.9142 71.2204C62.9968 71.3535 63.0381 71.5164 63.0381 71.7091C63.0381 71.934 62.9738 72.1267 62.8454 72.2873C62.7215 72.4433 62.5517 72.5626 62.336 72.6452C62.1249 72.7278 61.884 72.7691 61.6133 72.7691Z" fill="#323A2C"/>
<g opacity="0.999741">
<path d="M11.3238 81.8712C11.3238 80.9208 12.0943 80.1504 13.0446 80.1504H18.207C19.1573 80.1504 19.9277 80.9208 19.9277 81.8712V87.0335C19.9277 87.9839 19.1573 88.7543 18.207 88.7543H13.0446C12.0943 88.7543 11.3238 87.9839 11.3238 87.0335V81.8712Z" fill="#E9E9E9"/>
</g>
<g opacity="0.999741">
<path d="M23.3693 84.4519C23.3693 82.5514 24.91 81.0107 26.8105 81.0107H61.2261C63.1266 81.0107 64.6672 82.5514 64.6672 84.4519C64.6672 86.3524 63.1266 87.8931 61.2261 87.8931H26.8105C24.91 87.8931 23.3693 86.3524 23.3693 84.4519Z" fill="#E9E9E9"/>
</g>
<g opacity="0.999741">
<path d="M11.3238 95.6378C11.3238 94.6874 12.0943 93.917 13.0446 93.917H18.207C19.1573 93.917 19.9277 94.6874 19.9277 95.6378V100.8C19.9277 101.75 19.1573 102.521 18.207 102.521H13.0446C12.0943 102.521 11.3238 101.75 11.3238 100.8V95.6378Z" fill="#E9E9E9"/>
</g>
<g opacity="0.999741">
<path d="M23.3693 98.2185C23.3693 96.318 24.91 94.7773 26.8105 94.7773H61.2261C63.1266 94.7773 64.6672 96.318 64.6672 98.2185C64.6672 100.119 63.1266 101.66 61.2261 101.66H26.8105C24.91 101.66 23.3693 100.119 23.3693 98.2185Z" fill="#E9E9E9"/>
</g>
<g opacity="0.999741">
<path d="M11.3238 109.403C11.3238 108.453 12.0943 107.683 13.0446 107.683H18.207C19.1573 107.683 19.9277 108.453 19.9277 109.403V114.566C19.9277 115.516 19.1573 116.287 18.207 116.287H13.0446C12.0943 116.287 11.3238 115.516 11.3238 114.566V109.403Z" fill="#E9E9E9"/>
</g>
<g opacity="0.999741">
<path d="M23.3693 111.984C23.3693 110.084 24.91 108.543 26.8105 108.543H61.2261C63.1266 108.543 64.6672 110.084 64.6672 111.984C64.6672 113.885 63.1266 115.425 61.2261 115.425H26.8105C24.91 115.425 23.3693 113.885 23.3693 111.984Z" fill="#E9E9E9"/>
</g>
<g clip-path="url(#clip1_2673_4033)">
<rect x="111.43" y="1" width="419.57" height="373" rx="8" fill="#FAFAFA"/>
<mask id="path-25-inside-2_2673_4033" fill="white">
<path d="M111.43 1H523C527.418 1 531 4.58172 531 9V39.0902H111.43V1Z"/>
</mask>
<path d="M111.43 1H523C527.418 1 531 4.58172 531 9V39.0902H111.43V1Z" fill="white"/>
<path d="M111.43 1H531H111.43ZM531 39.5204H111.43V38.66H531V39.5204ZM111.43 39.0902V1V39.0902ZM531 1V39.0902V1Z" fill="#E9E9E9" mask="url(#path-25-inside-2_2673_4033)"/>
<g opacity="0.746044">
<path d="M121.31 11.3244C121.31 9.42365 122.851 7.88281 124.752 7.88281H227.998C229.899 7.88281 231.44 9.42365 231.44 11.3244V18.206C231.44 20.1067 229.899 21.6476 227.998 21.6476H124.752C122.851 21.6476 121.31 20.1067 121.31 18.206V11.3244Z" fill="#E9E9E9"/>
</g>
<g opacity="0.746044">
<path d="M121.31 28.5271C121.31 26.6266 122.851 25.0859 124.752 25.0859H200.465C202.366 25.0859 203.906 26.6266 203.906 28.5271C203.906 30.4276 202.366 31.9683 200.465 31.9683H124.752C122.851 31.9683 121.31 30.4276 121.31 28.5271Z" fill="#E9E9E9"/>
</g>
<g opacity="0.999741">
<path d="M444.969 15.6242C444.969 13.7235 446.509 12.1826 448.41 12.1826H496.59C498.49 12.1826 500.031 13.7235 500.031 15.6242V24.2273C500.031 26.128 498.49 27.6689 496.59 27.6689H448.41C446.509 27.6689 444.969 26.128 444.969 24.2273V15.6242Z" fill="#E9E9E9"/>
</g>
<g opacity="0.999741">
<path d="M505.192 19.9258C505.192 15.6493 508.659 12.1826 512.935 12.1826C517.212 12.1826 520.678 15.6493 520.678 19.9258C520.678 24.2022 517.212 27.6689 512.935 27.6689C508.659 27.6689 505.192 24.2022 505.192 19.9258Z" fill="#E9E9E9"/>
</g>
<path d="M209.956 49C213.4 49.0001 216.193 51.7924 216.193 55.2373V105.601C216.193 109.045 213.4 111.838 209.956 111.838H127.332C123.887 111.838 121.094 109.045 121.094 105.601V55.2373C121.094 51.7925 123.887 49.0001 127.332 49H209.956Z" fill="white"/>
<path d="M209.956 49C213.4 49.0001 216.193 51.7924 216.193 55.2373V105.601C216.193 109.045 213.4 111.838 209.956 111.838H127.332C123.887 111.838 121.094 109.045 121.094 105.601V55.2373C121.094 51.7925 123.887 49.0001 127.332 49H209.956Z" stroke="#E9E9E9" stroke-width="0.430195"/>
<g opacity="0.999741">
<path d="M131.631 59.5369C131.631 57.6364 133.172 56.0957 135.072 56.0957H169.488C171.388 56.0957 172.929 57.6364 172.929 59.5369C172.929 61.4374 171.388 62.9781 169.488 62.9781H135.072C133.172 62.9781 131.631 61.4374 131.631 59.5369Z" fill="#E9E9E9"/>
</g>
<g opacity="0.999741">
<path d="M198.296 57.8165C198.296 56.8661 199.067 56.0957 200.017 56.0957H203.458C204.408 56.0957 205.179 56.8661 205.179 57.8165V61.2573C205.179 62.2077 204.408 62.9781 203.458 62.9781H200.017C199.067 62.9781 198.296 62.2077 198.296 61.2573V57.8165Z" fill="#E9E9E9"/>
</g>
<g opacity="0.999741">
<path d="M131.633 83.6212C131.633 81.7205 133.174 80.1797 135.075 80.1797H162.607C164.508 80.1797 166.049 81.7205 166.049 83.6212V90.5029C166.049 92.4036 164.508 93.9444 162.607 93.9444H135.075C133.174 93.9444 131.633 92.4036 131.633 90.5029V83.6212Z" fill="#E9E9E9"/>
</g>
<g opacity="0.999741">
<path d="M131.633 98.2445C131.633 96.8194 132.789 95.6641 134.214 95.6641H156.582C158.007 95.6641 159.163 96.8194 159.163 98.2445C159.163 99.6696 158.007 100.825 156.582 100.825H134.214C132.789 100.825 131.633 99.6696 131.633 98.2445Z" fill="#E9E9E9"/>
</g>
<path d="M311.508 49C314.953 49.0001 317.745 51.7924 317.745 55.2373V105.601C317.745 109.045 314.953 111.838 311.508 111.838H228.884C225.439 111.838 222.647 109.045 222.647 105.601V55.2373C222.647 51.7925 225.439 49.0001 228.884 49H311.508Z" fill="white"/>
<path d="M311.508 49C314.953 49.0001 317.745 51.7924 317.745 55.2373V105.601C317.745 109.045 314.953 111.838 311.508 111.838H228.884C225.439 111.838 222.647 109.045 222.647 105.601V55.2373C222.647 51.7925 225.439 49.0001 228.884 49H311.508Z" stroke="#E9E9E9" stroke-width="0.430195"/>
<g opacity="0.999741">
<path d="M233.183 59.5369C233.183 57.6364 234.724 56.0957 236.624 56.0957H271.04C272.94 56.0957 274.481 57.6364 274.481 59.5369C274.481 61.4374 272.94 62.9781 271.04 62.9781H236.624C234.724 62.9781 233.183 61.4374 233.183 59.5369Z" fill="#E9E9E9"/>
</g>
<g opacity="0.999741">
<path d="M299.848 57.8165C299.848 56.8661 300.619 56.0957 301.569 56.0957H305.01C305.96 56.0957 306.731 56.8661 306.731 57.8165V61.2573C306.731 62.2077 305.96 62.9781 305.01 62.9781H301.569C300.619 62.9781 299.848 62.2077 299.848 61.2573V57.8165Z" fill="#E9E9E9"/>
</g>
<g opacity="0.999741">
<path d="M233.182 83.6212C233.182 81.7205 234.723 80.1797 236.623 80.1797H264.156C266.056 80.1797 267.597 81.7205 267.597 83.6212V90.5029C267.597 92.4036 266.056 93.9444 264.156 93.9444H236.623C234.723 93.9444 233.182 92.4036 233.182 90.5029V83.6212Z" fill="#E9E9E9"/>
</g>
<g opacity="0.999741">
<path d="M233.182 98.2445C233.182 96.8194 234.337 95.6641 235.762 95.6641H258.131C259.556 95.6641 260.711 96.8194 260.711 98.2445C260.711 99.6696 259.556 100.825 258.131 100.825H235.762C234.337 100.825 233.182 99.6696 233.182 98.2445Z" fill="#E9E9E9"/>
</g>
<path d="M413.06 49C416.505 49.0001 419.297 51.7924 419.297 55.2373V105.601C419.297 109.045 416.505 111.838 413.06 111.838H330.436C326.991 111.838 324.199 109.045 324.199 105.601V55.2373C324.199 51.7925 326.991 49.0001 330.436 49H413.06Z" fill="white"/>
<path d="M413.06 49C416.505 49.0001 419.297 51.7924 419.297 55.2373V105.601C419.297 109.045 416.505 111.838 413.06 111.838H330.436C326.991 111.838 324.199 109.045 324.199 105.601V55.2373C324.199 51.7925 326.991 49.0001 330.436 49H413.06Z" stroke="#E9E9E9" stroke-width="0.430195"/>
<g opacity="0.999741">
<path d="M334.735 59.5369C334.735 57.6364 336.276 56.0957 338.176 56.0957H372.592C374.492 56.0957 376.033 57.6364 376.033 59.5369C376.033 61.4374 374.492 62.9781 372.592 62.9781H338.176C336.276 62.9781 334.735 61.4374 334.735 59.5369Z" fill="#E9E9E9"/>
</g>
<g opacity="0.999741">
<path d="M401.4 57.8165C401.4 56.8661 402.171 56.0957 403.121 56.0957H406.562C407.512 56.0957 408.283 56.8661 408.283 57.8165V61.2573C408.283 62.2077 407.512 62.9781 406.562 62.9781H403.121C402.171 62.9781 401.4 62.2077 401.4 61.2573V57.8165Z" fill="#E9E9E9"/>
</g>
<g opacity="0.999741">
<path d="M334.734 83.6212C334.734 81.7205 336.275 80.1797 338.175 80.1797H365.708C367.608 80.1797 369.149 81.7205 369.149 83.6212V90.5029C369.149 92.4036 367.608 93.9444 365.708 93.9444H338.175C336.275 93.9444 334.734 92.4036 334.734 90.5029V83.6212Z" fill="#E9E9E9"/>
</g>
<g opacity="0.999741">
<path d="M334.734 98.2445C334.734 96.8194 335.889 95.6641 337.314 95.6641H359.683C361.108 95.6641 362.263 96.8194 362.263 98.2445C362.263 99.6696 361.108 100.825 359.683 100.825H337.314C335.889 100.825 334.734 99.6696 334.734 98.2445Z" fill="#E9E9E9"/>
</g>
<path d="M514.612 49C518.057 49.0001 520.849 51.7924 520.849 55.2373V105.601C520.849 109.045 518.057 111.838 514.612 111.838H431.988C428.543 111.838 425.751 109.045 425.751 105.601V55.2373C425.751 51.7925 428.543 49.0001 431.988 49H514.612Z" fill="white"/>
<path d="M514.612 49C518.057 49.0001 520.849 51.7924 520.849 55.2373V105.601C520.849 109.045 518.057 111.838 514.612 111.838H431.988C428.543 111.838 425.751 109.045 425.751 105.601V55.2373C425.751 51.7925 428.543 49.0001 431.988 49H514.612Z" stroke="#E9E9E9" stroke-width="0.430195"/>
<g opacity="0.999741">
<path d="M436.287 59.5369C436.287 57.6364 437.828 56.0957 439.728 56.0957H474.144C476.044 56.0957 477.585 57.6364 477.585 59.5369C477.585 61.4374 476.044 62.9781 474.144 62.9781H439.728C437.828 62.9781 436.287 61.4374 436.287 59.5369Z" fill="#E9E9E9"/>
</g>
<g opacity="0.999741">
<path d="M502.952 57.8165C502.952 56.8661 503.723 56.0957 504.673 56.0957H508.114C509.064 56.0957 509.835 56.8661 509.835 57.8165V61.2573C509.835 62.2077 509.064 62.9781 508.114 62.9781H504.673C503.723 62.9781 502.952 62.2077 502.952 61.2573V57.8165Z" fill="#E9E9E9"/>
</g>
<g opacity="0.999741">
<path d="M436.29 83.6212C436.29 81.7205 437.831 80.1797 439.731 80.1797H467.264C469.164 80.1797 470.705 81.7205 470.705 83.6212V90.5029C470.705 92.4036 469.164 93.9444 467.264 93.9444H439.731C437.831 93.9444 436.29 92.4036 436.29 90.5029V83.6212Z" fill="#E9E9E9"/>
</g>
<g opacity="0.999741">
<path d="M436.29 98.2445C436.29 96.8194 437.445 95.6641 438.87 95.6641H461.239C462.664 95.6641 463.819 96.8194 463.819 98.2445C463.819 99.6696 462.664 100.825 461.239 100.825H438.87C437.445 100.825 436.29 99.6696 436.29 98.2445Z" fill="#E9E9E9"/>
</g>
<path d="M514.612 121.732C518.057 121.732 520.849 124.525 520.849 127.97V238.093C520.849 241.538 518.057 244.33 514.612 244.33H127.332C123.887 244.33 121.094 241.538 121.094 238.093V127.97C121.094 124.525 123.887 121.733 127.332 121.732H514.612Z" fill="white"/>
<path d="M514.612 121.732C518.057 121.732 520.849 124.525 520.849 127.97V238.093C520.849 241.538 518.057 244.33 514.612 244.33H127.332C123.887 244.33 121.094 241.538 121.094 238.093V127.97C121.094 124.525 123.887 121.733 127.332 121.732H514.612Z" stroke="#E9E9E9" stroke-width="0.430195"/>
<g opacity="0.999741">
<path d="M132.064 132.702C132.064 130.802 133.605 129.261 135.505 129.261H190.567C192.468 129.261 194.009 130.802 194.009 132.702V136.141C194.009 138.042 192.468 139.582 190.567 139.582H135.505C133.605 139.582 132.064 138.042 132.064 136.141V132.702Z" fill="#E9E9E9"/>
</g>
<g opacity="0.999741">
<path d="M132.064 145.605C132.064 143.705 133.605 142.164 135.505 142.164H238.752C240.652 142.164 242.193 143.705 242.193 145.605C242.193 147.506 240.652 149.046 238.752 149.046H135.505C133.605 149.046 132.064 147.506 132.064 145.605Z" fill="#E9E9E9"/>
</g>
<g opacity="0.999741">
<path d="M131.868 149.046C131.868 147.145 133.409 145.604 135.309 145.604H169.724C171.625 145.604 173.166 147.145 173.166 149.046V150.767C173.166 152.668 171.625 154.208 169.724 154.208H135.309C133.409 154.208 131.868 152.668 131.868 150.767V149.046Z" fill="#E9E9E9"/>
</g>
<g opacity="0.999741">
<path d="M131.868 161.092C131.868 160.142 132.638 159.371 133.589 159.371H249.332C250.282 159.371 251.053 160.142 251.053 161.092V212.713C251.053 213.663 250.282 214.434 249.332 214.434H133.589C132.638 214.434 131.868 213.663 131.868 212.713V161.092Z" fill="#FAFAFA"/>
</g>
<g opacity="0.999741">
<path d="M131.868 223.037C131.868 221.136 133.409 219.596 135.309 219.596H247.612C249.512 219.596 251.053 221.136 251.053 223.037C251.053 224.937 249.512 226.478 247.612 226.478H135.309C133.409 226.478 131.868 224.937 131.868 223.037Z" fill="#E9E9E9"/>
</g>
<g opacity="0.999741">
<path d="M131.868 233.361C131.868 231.461 133.409 229.92 135.309 229.92H217.815C219.716 229.92 221.257 231.461 221.257 233.361C221.257 235.262 219.716 236.802 217.815 236.802H135.309C133.409 236.802 131.868 235.262 131.868 233.361Z" fill="#E9E9E9"/>
</g>
<g opacity="0.999741">
<path d="M261.377 149.047C261.377 147.146 262.918 145.605 264.819 145.605H299.234C301.135 145.605 302.675 147.146 302.675 149.047V150.768C302.675 152.669 301.135 154.209 299.234 154.209H264.819C262.918 154.209 261.377 152.669 261.377 150.768V149.047Z" fill="#E9E9E9"/>
</g>
<g opacity="0.999741">
<path d="M261.377 161.093C261.377 160.142 262.148 159.372 263.098 159.372H378.842C379.792 159.372 380.562 160.142 380.562 161.093V212.714C380.562 213.664 379.792 214.435 378.842 214.435H263.098C262.148 214.435 261.377 213.664 261.377 212.714V161.093Z" fill="#FAFAFA"/>
</g>
<g opacity="0.999741">
<path d="M261.377 223.038C261.377 221.137 262.918 219.597 264.819 219.597H377.121C379.022 219.597 380.562 221.137 380.562 223.038C380.562 224.938 379.022 226.479 377.121 226.479H264.819C262.918 226.479 261.377 224.938 261.377 223.038Z" fill="#E9E9E9"/>
</g>
<g opacity="0.999741">
<path d="M261.377 233.362C261.377 231.462 262.918 229.921 264.819 229.921H347.325C349.225 229.921 350.766 231.462 350.766 233.362C350.766 235.263 349.225 236.803 347.325 236.803H264.819C262.918 236.803 261.377 235.263 261.377 233.362Z" fill="#E9E9E9"/>
</g>
<g opacity="0.999741">
<path d="M390.887 149.047C390.887 147.146 392.428 145.605 394.329 145.605H428.743C430.644 145.605 432.185 147.146 432.185 149.047V150.768C432.185 152.669 430.644 154.209 428.743 154.209H394.329C392.428 154.209 390.887 152.669 390.887 150.768V149.047Z" fill="#E9E9E9"/>
</g>
<g opacity="0.999741">
<path d="M390.887 161.093C390.887 160.142 391.657 159.372 392.608 159.372H508.355C509.305 159.372 510.076 160.142 510.076 161.093V212.714C510.076 213.664 509.305 214.435 508.355 214.435H392.608C391.657 214.435 390.887 213.664 390.887 212.714V161.093Z" fill="#FAFAFA"/>
</g>
<g opacity="0.999741">
<path d="M390.887 223.038C390.887 221.137 392.428 219.597 394.328 219.597H506.634C508.535 219.597 510.076 221.137 510.076 223.038C510.076 224.938 508.535 226.479 506.634 226.479H394.328C392.428 226.479 390.887 224.938 390.887 223.038Z" fill="#E9E9E9"/>
</g>
<g opacity="0.999741">
<path d="M390.887 233.362C390.887 231.462 392.428 229.921 394.328 229.921H476.834C478.735 229.921 480.276 231.462 480.276 233.362C480.276 235.263 478.735 236.803 476.834 236.803H394.328C392.428 236.803 390.887 235.263 390.887 233.362Z" fill="#E9E9E9"/>
</g>
<path d="M514.612 254.226C518.057 254.226 520.849 257.018 520.849 260.463V418.572C520.849 422.017 518.057 424.81 514.612 424.811H127.332C123.887 424.81 121.094 422.017 121.094 418.572V260.463C121.094 257.018 123.887 254.226 127.332 254.226H514.612Z" fill="white"/>
<path d="M514.612 254.226C518.057 254.226 520.849 257.018 520.849 260.463V418.572C520.849 422.017 518.057 424.81 514.612 424.811H127.332C123.887 424.81 121.094 422.017 121.094 418.572V260.463C121.094 257.018 123.887 254.226 127.332 254.226H514.612Z" stroke="#E9E9E9" stroke-width="0.430195"/>
<g opacity="0.999741">
<path d="M131.631 269.925C131.631 268.024 133.172 266.483 135.072 266.483H176.37C178.27 266.483 179.811 268.024 179.811 269.925V273.364C179.811 275.264 178.27 276.805 176.37 276.805H135.072C133.172 276.805 131.631 275.264 131.631 273.364V269.925Z" fill="#E9E9E9"/>
</g>
<g opacity="0.999741">
<path d="M475.417 268.203C475.417 266.303 476.958 264.762 478.859 264.762H506.391C508.292 264.762 509.833 266.303 509.833 268.203V275.085C509.833 276.986 508.292 278.526 506.391 278.526H478.859C476.958 278.526 475.417 276.986 475.417 275.085V268.203Z" fill="#E9E9E9"/>
</g>
<mask id="path-69-inside-3_2673_4033" fill="white">
<path d="M131.631 291.429H509.833V301.989H131.631V291.429Z"/>
</mask>
<path d="M509.833 301.989V301.75H131.631V301.989V302.228H509.833V301.989Z" fill="#E9E9E9" mask="url(#path-69-inside-3_2673_4033)"/>
<g opacity="0.999741">
<path d="M131.631 294.87C131.631 292.969 133.171 291.429 135.072 291.429H155.719C157.62 291.429 159.16 292.969 159.16 294.87C159.16 296.77 157.62 298.311 155.719 298.311H135.072C133.171 298.311 131.631 296.77 131.631 294.87Z" fill="#E9E9E9"/>
</g>
<g opacity="0.999741">
<path d="M227.9 294.87C227.9 292.969 229.441 291.429 231.341 291.429H258.875C260.775 291.429 262.316 292.969 262.316 294.87C262.316 296.77 260.775 298.311 258.875 298.311H231.342C229.441 298.311 227.9 296.77 227.9 294.87Z" fill="#E9E9E9"/>
</g>
<g opacity="0.999741">
<path d="M324.174 294.87C324.174 292.969 325.714 291.429 327.615 291.429H351.705C353.606 291.429 355.146 292.969 355.146 294.87C355.146 296.77 353.606 298.311 351.705 298.311H327.615C325.714 298.311 324.174 296.77 324.174 294.87Z" fill="#E9E9E9"/>
</g>
<g opacity="0.999741">
<path d="M420.443 294.87C420.443 292.969 421.984 291.429 423.884 291.429H441.092C442.993 291.429 444.533 292.969 444.533 294.87C444.533 296.77 442.993 298.311 441.092 298.311H423.884C421.984 298.311 420.443 296.77 420.443 294.87Z" fill="#E9E9E9"/>
</g>
<g opacity="0.999741">
<path d="M131.631 314.03C131.631 312.13 133.171 310.589 135.072 310.589H152.28C154.18 310.589 155.721 312.13 155.721 314.03C155.721 315.931 154.18 317.471 152.28 317.471H135.072C133.171 317.471 131.631 315.931 131.631 314.03Z" fill="#E9E9E9"/>
</g>
<g opacity="0.999741">
<path d="M227.9 314.03C227.9 312.13 229.441 310.589 231.341 310.589H265.757C267.658 310.589 269.198 312.13 269.198 314.03C269.198 315.931 267.658 317.471 265.757 317.471H231.341C229.441 317.471 227.9 315.931 227.9 314.03Z" fill="#E9E9E9"/>
</g>
<g opacity="0.999741">
<path d="M324.174 314.03C324.174 312.13 325.714 310.589 327.615 310.589H348.262C350.163 310.589 351.703 312.13 351.703 314.03C351.703 315.931 350.163 317.471 348.262 317.471H327.615C325.714 317.471 324.174 315.931 324.174 314.03Z" fill="#E9E9E9"/>
</g>
<g opacity="0.999741">
<path d="M420.443 315.75C420.443 312.899 422.754 310.589 425.604 310.589H435.93C438.78 310.589 441.09 312.899 441.09 315.75C441.09 318.6 438.78 320.911 435.93 320.911H425.604C422.754 320.911 420.443 318.6 420.443 315.75Z" fill="#E9E9E9"/>
</g>
<g opacity="0.999741">
<path d="M131.631 336.389C131.631 334.489 133.171 332.948 135.072 332.948H152.28C154.18 332.948 155.721 334.489 155.721 336.389C155.721 338.29 154.18 339.831 152.28 339.831H135.072C133.171 339.831 131.631 338.29 131.631 336.389Z" fill="#E9E9E9"/>
</g>
<g opacity="0.999741">
<path d="M227.9 336.389C227.9 334.489 229.441 332.948 231.341 332.948H265.757C267.658 332.948 269.198 334.489 269.198 336.389C269.198 338.29 267.658 339.831 265.757 339.831H231.341C229.441 339.831 227.9 338.29 227.9 336.389Z" fill="#E9E9E9"/>
</g>
<g opacity="0.999741">
<path d="M324.174 336.389C324.174 334.489 325.714 332.948 327.615 332.948H348.262C350.163 332.948 351.703 334.489 351.703 336.389C351.703 338.29 350.163 339.831 348.262 339.831H327.615C325.714 339.831 324.174 338.29 324.174 336.389Z" fill="#E9E9E9"/>
</g>
<g opacity="0.999741">
<path d="M420.443 338.109C420.443 335.259 422.754 332.948 425.604 332.948H435.93C438.78 332.948 441.09 335.259 441.09 338.109C441.09 340.959 438.78 343.27 435.93 343.27H425.604C422.754 343.27 420.443 340.959 420.443 338.109Z" fill="#E9E9E9"/>
</g>
<g opacity="0.999741">
<path d="M131.631 358.753C131.631 356.852 133.171 355.312 135.072 355.312H152.28C154.18 355.312 155.721 356.852 155.721 358.753C155.721 360.653 154.18 362.194 152.28 362.194H135.072C133.171 362.194 131.631 360.653 131.631 358.753Z" fill="#E9E9E9"/>
</g>
<g opacity="0.999741">
<path d="M227.9 358.753C227.9 356.852 229.441 355.312 231.341 355.312H265.757C267.658 355.312 269.198 356.852 269.198 358.753C269.198 360.653 267.658 362.194 265.757 362.194H231.341C229.441 362.194 227.9 360.653 227.9 358.753Z" fill="#E9E9E9"/>
</g>
<g opacity="0.999741">
<path d="M324.174 358.753C324.174 356.852 325.714 355.312 327.615 355.312H348.262C350.163 355.312 351.703 356.852 351.703 358.753C351.703 360.653 350.163 362.194 348.262 362.194H327.615C325.714 362.194 324.174 360.653 324.174 358.753Z" fill="#E9E9E9"/>
</g>
<g opacity="0.999741">
<path d="M420.443 360.472C420.443 357.622 422.754 355.312 425.604 355.312H435.93C438.78 355.312 441.09 357.622 441.09 360.472C441.09 363.323 438.78 365.633 435.93 365.633H425.604C422.754 365.633 420.443 363.323 420.443 360.472Z" fill="#E9E9E9"/>
</g>
</g>
<g opacity="0.999741">
<path d="M8 352.604C8 347.852 11.8521 344 16.6039 344C21.3557 344 25.2078 347.852 25.2078 352.604C25.2078 357.356 21.3557 361.208 16.6039 361.208C11.8521 361.208 8 357.356 8 352.604Z" fill="#E9E9E9"/>
</g>
<g opacity="0.999741">
<path d="M28.6494 349.165C28.6494 347.264 30.19 345.724 32.0905 345.724H59.6237C61.5243 345.724 63.0649 347.264 63.0649 349.165C63.0649 351.065 61.5243 352.606 59.6238 352.606H32.0905C30.19 352.606 28.6494 351.065 28.6494 349.165Z" fill="#E9E9E9"/>
</g>
<g opacity="0.999741">
<path d="M28.6494 356.906C28.6494 355.48 29.8046 354.325 31.2298 354.325H53.5984C55.0235 354.325 56.1788 355.48 56.1788 356.906C56.1788 358.331 55.0235 359.486 53.5984 359.486H31.2298C29.8046 359.486 28.6494 358.331 28.6494 356.906Z" fill="#E9E9E9"/>
</g>
<defs>
<clipPath id="clip0_2673_4033">
<rect width="8.6039" height="8.6039" fill="white" transform="translate(11.3238 35.4102)"/>
</clipPath>
<clipPath id="clip1_2673_4033">
<rect x="111.43" y="1" width="419.57" height="373" rx="8" fill="white"/>
</clipPath>
</defs>
</svg>
